<?xml version="1.0" encoding="utf-8" ?><svg xmlns="http://www.w3.org/2000/svg" xmlns:xlink="http://www.w3.org/1999/xlink" width="1895" height="1139" viewBox="0 0 1895 1139"><path fill="#262628" d="M230.662 1014.72C228.632 1009.4 227.858 1003.6 227.78 997.931C227.039 944.649 227.14 891.021 227.981 837.748C228.327 815.874 229.489 794.025 229.655 772.15L229.915 433.131L229.871 217.763L229.737 153.719C229.694 139.888 229.027 125.71 230.54 111.943C231.839 100.123 238.123 89.0927 246.435 80.7515C254.586 72.6765 265.114 67.4308 276.47 65.7862C293.061 63.2984 311.657 64.8401 328.507 64.8454L425.946 64.8833L775.95 64.8664L1398.14 64.8971L1554.82 64.9215C1570.15 64.9072 1608.23 63.0469 1621.35 65.564C1635.91 66.8102 1648.89 73.8597 1658.23 85.075C1666.33 94.8036 1669.83 105.566 1670.61 118.073C1671.85 137.938 1670.91 158.391 1670.9 178.31L1670.82 292.147L1670.8 646.533L1671.37 895.043L1671.92 970.005C1672.04 982.052 1673.26 995.115 1672.04 1007.03C1671.74 1009.87 1671.02 1012.48 1670 1015.13C1694.85 1014.91 1720.73 1013.61 1745.49 1015.19L1803.02 1015.26L1811.19 1015.09L1819.66 1015.13C1823.14 1015.23 1826.72 1015.16 1830.18 1015.5C1830.28 1024.01 1831.98 1040.25 1829.47 1047.86L1827.69 1049.06C1806.24 1061.05 1784.52 1067.35 1759.92 1068.46C1715.69 1070.45 1670.75 1068.94 1626.45 1068.97L1376.71 1069L631.657 1068.92L278.085 1068.89L190.411 1068.9C167.831 1068.91 142.975 1070.94 120.892 1065.93C105.293 1065.09 86.545 1056.44 72.9397 1049.1C72.2956 1048.78 71.6204 1047.91 71.0905 1047.4C69.2413 1037.42 70.6705 1025.45 70.6299 1015.22C75.9091 1015.14 81.1952 1015.17 86.4754 1015.16L89.1752 1015.18C111.285 1015.11 133.859 1014.19 155.931 1015.17C171.623 1015 187.317 1014.98 203.009 1015.09C212.07 1015.12 221.683 1015.78 230.662 1014.72ZM281.081 122.039L281.117 959.01C336.318 958.398 391.566 958.877 446.772 958.9L734.968 958.927L1620.13 958.776L1620.08 411.497C1620.08 315.065 1619.07 218.514 1620.16 122.095C1573.92 121.731 1527.38 123.366 1481.2 121.754C1469.2 122.278 1456.95 121.805 1444.92 121.839L1367.48 121.947L1143.08 121.948L462.646 121.738L281.081 122.039Z"/><path fill="#F0F0F0" d="M996.11 1015.4L1073.65 1015.15C1085.19 1015.01 1141.66 1012.84 1148.97 1015.14C1255.32 1016.59 1361.85 1015.3 1468.22 1015.3L1600.54 1015.44C1623.63 1015.44 1646.93 1016.1 1670 1015.13C1694.85 1014.91 1720.73 1013.61 1745.49 1015.19L1803.02 1015.26L1811.19 1015.09L1819.66 1015.13C1823.14 1015.23 1826.72 1015.16 1830.18 1015.5C1830.28 1024.01 1831.98 1040.25 1829.47 1047.86L1827.69 1049.06C1806.24 1061.05 1784.52 1067.35 1759.92 1068.46C1715.69 1070.45 1670.75 1068.94 1626.45 1068.97L1376.71 1069L631.657 1068.92L278.085 1068.89L190.411 1068.9C167.831 1068.91 142.975 1070.94 120.892 1065.93C105.293 1065.09 86.545 1056.44 72.9397 1049.1C72.2956 1048.78 71.6204 1047.91 71.0905 1047.4C69.2413 1037.42 70.6705 1025.45 70.6299 1015.22C75.9091 1015.14 81.1952 1015.17 86.4754 1015.16L89.1752 1015.18C111.285 1015.11 133.859 1014.19 155.931 1015.17C171.623 1015 187.317 1014.98 203.009 1015.09C212.07 1015.12 221.683 1015.78 230.662 1014.72C242.988 1017.25 266.527 1015.48 279.959 1015.47L390.17 1015.35L633.551 1015.29C674.353 1015.29 715.445 1016.29 756.21 1015.14C769.452 1012.85 788.729 1014.72 802.522 1014.84C836.18 1015.24 869.841 1015.43 903.501 1015.41C934.332 1015.29 965.289 1014.72 996.11 1015.4Z"/><defs><linearGradient id="gradient_0" gradientUnits="userSpaceOnUse" x1="928.06885" y1="1064.0542" x2="928.06885" y2="1049.2488"><stop offset="0" stop-color="#565557"/><stop offset="1" stop-color="#7D7D7D"/></linearGradient></defs><path fill="url(#gradient_0)" d="M89.1752 1015.18C111.285 1015.11 133.859 1014.19 155.931 1015.17C147.299 1016.12 138.641 1016.32 129.995 1017.05C129.916 1025.11 128.02 1039.59 131.339 1046.71C133.455 1047.3 135.599 1048.02 137.763 1048.39L1245.89 1048.4L1614.26 1048.4C1675.28 1048.04 1736.3 1048.03 1797.32 1048.38L1823.81 1048.34L1827.69 1049.06C1806.24 1061.05 1784.52 1067.35 1759.92 1068.46C1715.69 1070.45 1670.75 1068.94 1626.45 1068.97L1376.71 1069L631.657 1068.92L278.085 1068.89L190.411 1068.9C167.831 1068.91 142.975 1070.94 120.892 1065.93C105.293 1065.09 86.545 1056.44 72.9397 1049.1C72.2956 1048.78 71.6204 1047.91 71.0905 1047.4C69.2413 1037.42 70.6705 1025.45 70.6299 1015.22C75.9091 1015.14 81.1952 1015.17 86.4754 1015.16L89.1752 1015.18Z"/><defs><linearGradient id="gradient_1" gradientUnits="userSpaceOnUse" x1="973.40686" y1="1066.9465" x2="973.40942" y2="1049.1295"><stop offset="0" stop-color="#4A484C"/><stop offset="1" stop-color="#7B7C7A"/></linearGradient></defs><path fill="url(#gradient_1)" d="M1823.81 1048.34L1827.69 1049.06C1806.24 1061.05 1784.52 1067.35 1759.92 1068.46C1715.69 1070.45 1670.75 1068.94 1626.45 1068.97L1376.71 1069L631.657 1068.92L278.085 1068.89L190.411 1068.9C167.831 1068.91 142.975 1070.94 120.892 1065.93C123.044 1065.08 125.369 1064.59 127.607 1063.99L128.047 1063.21C118.835 1062.69 110.278 1060.26 101.528 1057.48C122.481 1057.41 143.39 1059.32 164.343 1059.35L1345.84 1057.68L1636.26 1057.64C1678.92 1057.64 1721.69 1058.28 1764.33 1057.58C1771.99 1057.45 1798.95 1057.64 1804.75 1054.65L1804.57 1053.38C1799.51 1054.42 1793.01 1052.46 1788.12 1050.95C1791.99 1050.87 1794.06 1050.56 1797.32 1048.38L1823.81 1048.34Z"/><defs><linearGradient id="gradient_2" gradientUnits="userSpaceOnUse" x1="129.58707" y1="1031.2635" x2="95.282974" y2="1031.153"><stop offset="0" stop-color="#B9B8B9"/><stop offset="1" stop-color="#EEE"/></linearGradient></defs><path fill="url(#gradient_2)" d="M89.1752 1015.18C111.285 1015.11 133.859 1014.19 155.931 1015.17C147.299 1016.12 138.641 1016.32 129.995 1017.05C129.916 1025.11 128.02 1039.59 131.339 1046.71C133.455 1047.3 135.599 1048.02 137.763 1048.39L86.6382 1048.06L80.5011 1048.3L72.9397 1049.1C72.2956 1048.78 71.6204 1047.91 71.0905 1047.4C69.2413 1037.42 70.6705 1025.45 70.6299 1015.22C75.9091 1015.14 81.1952 1015.17 86.4754 1015.16L89.1752 1015.18Z"/><path fill="#F0F0F0" d="M70.6299 1015.22C75.9091 1015.14 81.1952 1015.17 86.4754 1015.16L89.1752 1015.18C91.3451 1015.83 94.1724 1016.16 95.7 1017.83C95.5573 1026.63 96.5697 1037.37 94.7116 1045.88C92.0602 1047.01 89.4474 1047.53 86.6382 1048.06L80.5011 1048.3L72.9397 1049.1C72.2956 1048.78 71.6204 1047.91 71.0905 1047.4C69.2413 1037.42 70.6705 1025.45 70.6299 1015.22Z"/><path fill="#A6A6A6" d="M70.6299 1015.22C75.9091 1015.14 81.1952 1015.17 86.4754 1015.16L79.8659 1016.54C79.8326 1024.58 78.1308 1041.22 80.5011 1048.3L72.9397 1049.1C72.2956 1048.78 71.6204 1047.91 71.0905 1047.4C69.2413 1037.42 70.6705 1025.45 70.6299 1015.22Z"/><path fill="#C6C5C6" d="M1811.19 1015.09L1819.66 1015.13C1823.14 1015.23 1826.72 1015.16 1830.18 1015.5C1830.28 1024.01 1831.98 1040.25 1829.47 1047.86L1827.69 1049.06L1823.81 1048.34L1797.32 1048.38C1736.3 1048.03 1675.28 1048.04 1614.26 1048.4L1245.89 1048.4L137.763 1048.39C135.599 1048.02 133.455 1047.3 131.339 1046.71C131.54 1046.68 131.741 1046.65 131.941 1046.61C141.25 1044.95 152.369 1047.48 161.936 1047.61C187.258 1047.96 212.62 1047.7 237.945 1047.69L571.334 1047.68L1770.42 1046.02C1771.34 1038.95 1773.27 1026.81 1770.79 1020.24C1765.77 1014.99 1753.37 1016.95 1746.25 1015.37L1745.49 1015.19L1803.02 1015.26L1811.19 1015.09Z"/><defs><linearGradient id="gradient_3" gradientUnits="userSpaceOnUse" x1="1788.4886" y1="1031.0571" x2="1812.8176" y2="1031.3461"><stop offset="0" stop-color="#D2D2D2"/><stop offset="1" stop-color="white"/></linearGradient></defs><path fill="url(#gradient_3)" d="M1803.02 1015.26L1811.19 1015.09L1816.93 1016.56L1817.39 1047.24C1807.29 1048 1794.58 1049 1784.67 1046.72L1787.71 1046.2C1788.72 1041.82 1790.03 1021.08 1788.49 1017.49L1783.54 1016.81C1785.16 1015.14 1798.89 1016.33 1802.3 1015.46C1802.54 1015.4 1802.78 1015.33 1803.02 1015.26Z"/><path fill="#A6A6A6" d="M1819.66 1015.13C1823.14 1015.23 1826.72 1015.16 1830.18 1015.5C1830.28 1024.01 1831.98 1040.25 1829.47 1047.86L1827.69 1049.06L1823.81 1048.34C1826.87 1041.07 1824.49 1024.9 1823.96 1016.76L1819.66 1015.13Z"/><defs><linearGradient id="gradient_4" gradientUnits="userSpaceOnUse" x1="1070.5166" y1="1025.3248" x2="1033.4935" y2="1025.0594"><stop offset="0" stop-color="#9A9A9B"/><stop offset="1" stop-color="#C6C5C6"/></linearGradient></defs><path fill="url(#gradient_4)" d="M996.11 1015.4L1073.65 1015.15C1085.19 1015.01 1141.66 1012.84 1148.97 1015.14C1142.63 1017.05 1085.58 1015.89 1072.96 1015.97C1072.63 1017.67 1072.39 1019.38 1072.05 1021.07C1070.66 1027.91 1066.29 1031.58 1060.76 1035.28C1049.92 1035.88 1038.87 1035.46 1028.01 1035.49C1018.04 1035.53 1007.91 1036.08 997.956 1035.57L997.461 1034.69C1009.3 1033.65 1021.25 1035.26 1033.1 1033.74L1033.1 1017.32C1026.67 1017.31 1000.42 1019.05 996.11 1015.4Z"/><defs><linearGradient id="gradient_5" gradientUnits="userSpaceOnUse" x1="828.74774" y1="1024.0665" x2="866.89496" y2="1025.734"><stop offset="0" stop-color="#989799"/><stop offset="1" stop-color="#C6C6C7"/></linearGradient></defs><path fill="url(#gradient_5)" d="M756.21 1015.14C769.452 1012.85 788.729 1014.72 802.522 1014.84C836.18 1015.24 869.841 1015.43 903.501 1015.41C898.687 1019.21 874.267 1017.37 867.477 1017.35L867.442 1034.45C878.159 1034.4 891.025 1032.93 901.45 1035.12C895.308 1037.14 849.194 1035.44 839.796 1035.28C838.364 1034.35 836.971 1033.35 835.623 1032.3C830.111 1027.96 828.526 1022.67 827.665 1015.93L780.259 1015.75C772.49 1015.71 763.861 1016.34 756.21 1015.14Z"/><path fill="#010101" d="M230.662 1014.72C228.632 1009.4 227.858 1003.6 227.78 997.931C227.039 944.649 227.14 891.021 227.981 837.748C228.327 815.874 229.489 794.025 229.655 772.15L229.915 433.131L229.871 217.763L229.737 153.719C229.694 139.888 229.027 125.71 230.54 111.943C231.839 100.123 238.123 89.0927 246.435 80.7515C254.586 72.6765 265.114 67.4308 276.47 65.7862C293.061 63.2984 311.657 64.8401 328.507 64.8454L425.946 64.8833L775.95 64.8664C778.063 67.3358 780.145 69.8311 782.196 72.3518L433.928 72.6213L333.672 72.554C316.704 72.5434 298.376 71.1834 281.55 73.1163C273.651 74.0237 260.494 79.0462 254.8 84.7761C246.282 93.3473 239.747 103.132 238.325 115.433C237.106 125.974 237.829 137.344 237.833 147.972L237.879 206.366L238.02 395.917L237.907 771.818C237.863 834.981 236.947 898.268 237.865 961.416C238.03 972.71 238.472 985.122 247.024 993.605C254.218 1000.74 263.163 1001.9 272.812 1002.47C293.745 1003.71 315.136 1002.75 336.131 1002.71L443.696 1002.81L784.519 1002.81L1332.89 1002.81C1426.98 1002.81 1521.3 1004.35 1615.36 1002.62C1628.05 1002.38 1644.11 1002.47 1653.49 992.551C1660.25 985.412 1661.35 976.858 1661.96 967.483C1663.06 950.915 1662.54 934.083 1662.56 917.482L1662.65 834.819L1662.75 578.208L1662.74 271.491L1662.72 174.646C1662.76 156.425 1663.46 137.943 1662.66 119.75C1662.07 106.494 1656.49 92.9195 1646.46 83.9318C1639.86 78.0186 1631.44 73.9425 1622.64 72.849C1604.49 70.592 1584.78 72.0691 1566.48 72.0637L1457.88 72.0274L1042.8 71.039L871.026 71.2622C844.39 71.2776 817.489 72.1022 790.88 71.351C787.522 71.2562 783.885 70.7813 781.017 68.9099L781.31 67.8176C790.267 65.3639 817.355 67.0712 828.265 67.0733L941.117 67.0876L1397.61 66.0881L1547.24 66.0082C1570.24 65.9985 1598.82 67.6815 1621.35 65.564C1635.91 66.8102 1648.89 73.8597 1658.23 85.075C1666.33 94.8036 1669.83 105.566 1670.61 118.073C1671.85 137.938 1670.91 158.391 1670.9 178.31L1670.82 292.147L1670.8 646.533L1671.37 895.043L1671.92 970.005C1672.04 982.052 1673.26 995.115 1672.04 1007.03C1671.74 1009.87 1671.02 1012.48 1670 1015.13C1646.93 1016.1 1623.63 1015.44 1600.54 1015.44L1468.22 1015.3C1361.85 1015.3 1255.32 1016.59 1148.97 1015.14C1141.66 1012.84 1085.19 1015.01 1073.65 1015.15L996.11 1015.4C965.289 1014.72 934.332 1015.29 903.501 1015.41C869.841 1015.43 836.18 1015.24 802.522 1014.84C788.729 1014.72 769.452 1012.85 756.21 1015.14C715.445 1016.29 674.353 1015.29 633.551 1015.29L390.17 1015.35L279.959 1015.47C266.527 1015.48 242.988 1017.25 230.662 1014.72Z"/><path fill="#010101" d="M1481.2 121.754C1477.58 119.876 1389.87 120.92 1377.24 120.867L926.988 120.271C912.024 120.276 827.31 121.858 820.863 119.037C819.972 118.647 791.191 82.059 789.915 79.2529C811.409 78.0046 833.412 77.4299 854.935 78.0022C857.574 78.0724 859.993 78.9594 862.514 79.029C870.584 79.2516 878.782 78.2693 886.88 78.2175C896.856 78.1536 906.813 79.0279 916.782 79.0203L1196.06 78.6505C1293.78 77.2801 1391.5 76.7341 1489.23 77.0125L1572.1 76.7916C1587.01 76.729 1602.62 75.7818 1617.45 77.0501C1628.41 77.987 1637.56 82.2008 1645.91 89.3627C1655.56 97.6422 1657.04 106.044 1657.96 118.138C1659.09 132.742 1658.37 147.804 1658.37 162.462L1658.37 241.924L1658.35 493.802L1658.41 802.999L1658.66 925.539C1658.61 939.807 1659.54 954.292 1658.92 968.525C1658.59 976.079 1656.99 984.41 1651.84 990.254C1646.54 996.27 1638.61 998.043 1630.94 998.605C1619.5 999.443 1607.69 998.668 1596.21 998.665C1583.28 998.661 1570.35 999.36 1557.41 999.308C1542.58 999.247 1527.8 998.416 1512.96 998.681C1451.58 999.607 1390.2 999.854 1328.82 999.423L1086.14 999.253L518.164 999.197C439.144 999.6 360.122 999.434 281.104 998.698C273.546 998.553 257.543 998.838 251.784 993.798C250.944 993.063 250.087 992.339 249.298 991.549C243.839 986.076 242.794 976.735 242.312 969.377C240.428 940.573 241.948 910.771 241.965 881.843L241.926 713.033L241.927 131.365C241.949 114.247 242.41 100.522 255.397 87.7545C261.917 81.3453 270.053 78.1577 279.126 77.1475C298.093 75.0359 318.521 76.428 337.64 76.438L446.401 76.4802C559.28 76.4478 672.282 75.2328 785.144 76.58C793.24 84.645 815.078 111.734 819.652 121.263C736.535 122.464 653.246 121.403 570.112 121.393L500.614 121.294C488.124 121.27 475.05 120.46 462.646 121.738L281.081 122.039L281.117 959.01C336.318 958.398 391.566 958.877 446.772 958.9L734.968 958.927L1620.13 958.776L1620.08 411.497C1620.08 315.065 1619.07 218.514 1620.16 122.095C1573.92 121.731 1527.38 123.366 1481.2 121.754Z"/><path fill="#262628" d="M950.265 89.4307C951.268 89.7079 952.268 89.9944 953.242 90.3627C955.805 91.3314 957.62 93.3211 958.65 95.841C959.516 97.9592 959.436 100.244 958.391 102.287C956.772 105.452 954.05 106.428 950.933 107.545C950.606 107.481 950.279 107.413 949.951 107.352C948.748 107.129 947.436 106.96 946.323 106.421C944.495 105.535 942.866 103.484 942.124 101.625C941.228 99.3804 941.537 97.1035 942.577 94.9609C944.194 91.6264 947.036 90.6343 950.265 89.4307Z"/></svg>