<?xml version="1.0" encoding="utf-8" ?><svg xmlns="http://www.w3.org/2000/svg" xmlns:xlink="http://www.w3.org/1999/xlink" width="836" height="1092" viewBox="0 0 836 1092"><path d="M390.554 58.7726C391.43 58.7332 392.33 58.6963 393.204 58.7963C396.243 59.1438 399.164 60.6848 400.921 63.2158C403.459 66.869 403.375 70.3624 402.512 74.4868C430.353 67.671 460.246 69.8907 488.469 73.1376C495.208 73.9129 507.132 73.9958 511.473 79.8707C513.251 82.2764 513.922 85.2849 513.492 88.2316C511.814 99.7128 500.115 96.8324 491.896 98.7527C487.271 99.8331 484.078 101.616 480.366 104.513C483.703 105.337 487 106.311 490.248 107.434C524.975 119.494 550.407 143.353 566.345 176.345C578.957 202.452 584.838 232.626 585.569 261.491C585.696 266.523 586.392 272.901 584.543 277.671C583.052 281.518 579.674 282.993 576.131 284.418C574.086 310.929 567.338 337.792 553.032 360.365C552.657 408.318 540.879 455.348 507.351 491.093C521.898 491.236 536.445 491.243 550.992 491.115C558.551 491.089 566.707 490.471 574.185 491.554C578.065 492.092 581.791 493.428 585.129 495.477C602.269 505.959 607.798 529.834 612.243 548.062L649.536 548.001C660.188 547.987 671.749 546.989 682.109 549.676C690.706 551.947 698.546 556.462 704.823 562.761C716.13 573.962 719.094 587.404 719.185 602.772L719.187 785.19L719.196 835.011C719.22 845.668 720.111 857.167 718.312 867.661C716.603 877.759 711.758 887.064 704.465 894.255C686.227 912.468 660.079 908.508 636.586 908.543C636.509 923.28 636.515 938.016 636.606 952.753L699.586 952.64C712.984 952.626 729.494 951.147 742.389 954.249C751.941 956.587 760.699 961.424 767.765 968.264C778.568 978.722 784.717 993.081 784.831 1008.12C784.959 1023.22 779.024 1037.74 768.357 1048.43C760.21 1056.52 749.765 1061.9 738.449 1063.83C727.857 1065.63 716.234 1064.78 705.49 1064.78L651.888 1064.76L458.787 1064.76L193.431 1064.76L117.328 1064.77C104.637 1064.77 90.532 1065.94 77.9971 1064.08C66.5449 1062.42 55.8968 1057.23 47.5406 1049.22C36.6439 1038.79 30.4343 1024.38 30.326 1009.3C30.1225 994.078 36.1071 979.429 46.9084 968.707C54.0403 961.622 62.9829 956.636 72.7582 954.293C85.9341 951.151 101.663 952.731 115.198 952.742L178.562 952.703L178.551 908.62C154.553 907.9 130.007 912.931 110.941 894.421C100.471 884.257 96.0595 871.475 95.9049 857.09C95.2513 796.274 95.9185 735.361 95.9325 674.536L95.9 620.789C95.8951 610.617 95.0584 599.726 96.6995 589.7C98.3284 579.448 103.116 569.96 110.394 562.559C116.751 556.255 124.69 551.781 133.374 549.607C143.637 547.036 155.128 548.023 165.676 548.027L203.266 548.065C205.624 532.201 212.366 511.807 223.852 500.345C227.817 496.388 232.598 493.472 238.046 492.095C246.862 489.866 258.059 491.109 267.169 491.141L307.753 491.155C276.743 458.179 266.281 419.245 262.348 375.275C237.298 347.11 234.601 296.393 234.528 260.647C233.364 260.093 232.189 259.475 231.119 258.754C228.041 256.679 226.59 253.278 225.895 249.741C224.8 244.17 225.251 237.742 225.303 232.067C225.524 208.104 228.774 183.973 242.668 163.763C255.628 144.911 273.475 135.526 295.521 131.533C297.323 122.824 299.651 115.285 304.71 107.825C321.565 82.9651 361.973 64.1231 390.554 58.7726ZM325.559 885.736L333.737 846.503C335.191 839.494 336.156 831.562 338.727 824.897C339.612 822.602 340.601 820.916 342.706 819.539C344.577 818.316 346.675 817.844 348.879 817.716C356.993 817.247 365.262 817.583 373.395 817.609L414.335 817.615L449.026 817.566C455.393 817.561 463.264 816.704 469.391 818.205C471.603 818.746 474.166 820.413 475.35 822.389C479.669 829.598 485.964 872.928 489.578 885.732L601.541 885.688L648.99 885.745C657.41 885.749 667.763 886.851 675.894 884.948C680.663 883.831 684.993 881.236 688.469 877.816C696.793 869.627 696.418 859.993 696.406 849.154L696.358 671.176L696.378 621.241C696.404 612.196 697.278 602.324 695.934 593.382C695.083 587.717 692.411 582.482 688.323 578.47C683.968 574.27 678.339 571.639 672.325 570.992C665.445 570.293 658.24 570.702 651.319 570.7L614.147 570.7L493.524 570.706L264.737 570.702C225.32 570.701 185.701 569.845 146.301 570.731C146.16 570.734 146.018 570.741 145.877 570.747C137.902 571.338 130.766 573.758 125.357 579.93C120.992 584.911 119.6 589.755 118.894 596.244C117.499 609.061 118.482 622.879 118.479 635.812L118.475 712.261C118.478 740.899 118.904 769.573 118.689 798.203C118.544 811.596 118.483 824.99 118.505 838.384C118.507 846.103 118.275 853.929 118.836 861.629C119.313 868.173 122.877 874.738 127.812 879.01C131.547 882.242 136.107 884.544 141.017 885.265C147.75 886.253 154.949 885.739 161.759 885.713L195.239 885.666L325.559 885.736ZM732.16 1041.74C741.736 1040.27 749.827 1036.22 755.689 1028.3C760.979 1021.2 763.175 1012.26 761.781 1003.51C760.255 994.474 755.17 986.428 747.665 981.171C742.024 977.213 736.26 975.697 729.447 975.305C717.36 974.61 705.009 975.154 692.888 975.159L623.122 975.197L411.201 975.211L193.227 975.225L122.34 975.176C109.35 975.161 96.1135 974.649 83.1464 975.375C73.1069 977.205 64.8168 981.247 58.9272 989.882C53.7374 997.363 51.8651 1006.65 53.7527 1015.56C55.5757 1024.18 60.7273 1031.73 68.0877 1036.58C73.8495 1040.37 79.7983 1041.67 86.605 1041.94C102.582 1042.57 118.785 1042.06 134.787 1042.05L224.736 1042.01L498.631 1042.04L658.902 1042.03L706.753 1042.06C715.023 1042.06 723.955 1042.7 732.16 1041.74ZM247.94 226.993C251.434 227.993 254.655 229.497 256.471 232.875C257.514 234.813 257.55 237.557 257.629 239.723C257.836 245.438 257.276 251.18 257.214 256.899C257.03 273.713 257.279 291.716 260.622 308.196C262.021 281.306 267.453 245.671 288.558 226.611C297.564 218.479 309.468 214.322 321.578 215.08C335.427 215.834 345.944 222.404 358.676 226.431C391.219 236.723 430.006 227.21 461.041 215.987C475.502 210.489 488.65 207.252 503.515 213.903C520.527 221.515 531.161 239.498 537.476 256.336C543.845 273.316 547.103 291.028 549.685 308.914C551.665 296.853 553.578 284.763 554.454 272.561C555.052 264.218 553.817 251.59 555.769 244.06C556.515 241.181 558.368 239.344 560.662 237.574C556.313 202.893 541.844 167.301 513.638 145.348C502.011 136.298 487.844 129.179 473.422 125.967C467.527 124.654 459.939 124.465 454.647 121.53C451.797 119.95 449.832 116.789 449.499 113.572C448.764 106.467 455.014 98.392 459.349 93.3768C444.155 92.7949 409.327 91.32 397.685 101.816C392.156 106.801 393.623 115.197 383.562 115.061C380.408 115.019 377.202 113.644 375.088 111.28C369.932 105.514 372.964 90.8385 370.942 88.6194C353.067 95.2231 329.066 107.36 320.743 125.425C319.594 127.919 318.63 130.785 318.297 133.513C317.45 140.467 320.202 148.822 311.548 152.146C306.887 153.937 301.385 153.155 296.503 154C278.733 157.072 264.301 168.91 256.531 184.964C250.272 197.897 248.189 212.743 247.94 226.993ZM572.331 514.009C561.196 513.42 549.876 513.814 538.719 513.831L480.644 513.975C480.702 525.347 480.588 536.748 480.848 548.114L588.641 548.11C586.015 536.705 581.928 521.367 572.331 514.009ZM313.392 944.545C315.776 932.557 318.244 920.586 320.797 908.633C281.074 907.946 241.204 908.384 201.47 908.551L201.53 952.632L274.884 952.684C287.018 952.706 299.529 952.127 311.626 952.811L313.392 944.545ZM613.668 908.606L494.316 908.539C497.335 923.212 500.667 937.854 503.364 952.588L613.732 952.622C613.491 937.95 613.821 923.277 613.668 908.606ZM226.595 548.131L318.032 548.192L334.443 548.135L334.392 514.059C315.651 513.912 296.909 513.868 278.168 513.928C266.447 513.932 254.553 513.559 242.853 514.085C233.188 522.061 229.008 536.205 226.595 548.131ZM339.433 488.871C365.082 507.243 394.687 515.418 426.048 510.171C457.047 504.985 483.975 486.765 502.056 461.302C526.578 426.769 531.526 384.735 529.737 343.504C529.144 328.494 527.639 313.534 525.23 298.707C521.97 279.571 514.976 249.023 498.257 237.139C492.67 233.167 487.174 232.605 480.528 233.138C440.621 248.146 392.962 261.939 350.722 247.901C339.486 244.166 328.18 236.578 315.867 238.149C304.559 239.592 297.871 248.966 293.517 258.678C279.352 290.283 281.369 331.244 284.29 364.853C286.301 387.987 288.499 409.606 296.95 431.463C305.454 453.458 320.024 475.069 339.433 488.871ZM357.235 548.095L422.627 548.075C434.478 548.081 446.45 547.747 458.284 548.22C458.172 544.595 458.005 540.962 458.115 537.335L458.03 524.936C424.818 536.473 390.333 538.761 357.218 524.975L357.235 548.095ZM457.188 952.549C464.924 952.583 472.691 952.468 480.423 952.692C474 925.4 468.799 897.71 463.047 870.263C460.969 860.349 459.214 850.19 456.717 840.381C423.972 840.186 391.164 839.972 358.423 840.35C349.699 877.599 342.768 915.369 334.709 952.779L457.188 952.549Z"/><path d="M476.684 618.009C477.73 617.909 478.766 617.849 479.817 617.915C482.146 618.061 483.889 618.589 485.812 619.9C491.716 623.923 497.229 629.05 502.775 633.567L536.235 660.819L556.303 677.256C560.059 680.321 564.513 683.388 567.673 687.04C569.729 689.39 570.696 692.499 570.334 695.6C570.046 698.272 568.792 699.968 567.004 701.869C559.113 710.261 548.503 717.526 539.533 724.836L486.869 767.819C484.42 769.511 481.915 770.593 478.882 770.541C475.693 770.487 472.72 768.926 470.664 766.515C468.747 764.238 467.846 761.276 468.169 758.318C468.399 756.032 469.196 754.062 470.69 752.318C476.723 745.271 486 739.164 493.22 733.255L541.05 694.231C531.525 686.462 471.711 639.126 469 633.597C467.835 631.221 467.693 628.131 468.577 625.652C470.021 621.602 472.984 619.651 476.684 618.009Z"/><path d="M332.19 618.052C333.068 617.928 333.951 617.814 334.837 617.784C338.249 617.67 341.234 618.53 343.669 620.995C345.988 623.342 347.315 626.439 347.152 629.768C347.019 632.49 345.867 634.436 344.088 636.409C337.843 643.336 329.053 649.269 321.8 655.151C305.869 668.069 289.703 680.806 274.127 694.148C279.683 699.25 285.873 703.834 291.716 708.614L323.884 734.893C329.894 739.752 336.393 744.45 341.957 749.816C344.699 752.46 347.469 755.648 347.411 759.699C347.369 762.618 345.794 765.225 343.661 767.123C340.126 770.267 337.293 770.618 332.81 770.409C326.495 767.463 320.548 761.635 315.133 757.225L288.318 735.181C275.36 724.529 261.409 714.329 249.097 702.974C247.817 701.794 246.719 700.628 245.954 699.037C244.701 696.43 244.526 693.197 245.491 690.468C246.245 688.338 247.62 686.696 249.239 685.17C253.725 680.941 258.864 677.182 263.641 673.266L292.28 649.786L316.228 630.162C321.235 626.067 326.435 620.995 332.19 618.052Z"/><path d="M426.19 606.869C428.035 606.873 429.662 606.964 431.425 607.565C434.329 608.554 436.963 610.634 438.197 613.494C439.318 616.093 439.343 617.941 438.83 620.641C436.848 631.062 433.436 641.541 430.68 651.807L414.516 712.05L402.763 756.085C401.132 762.125 399.894 769.517 397.296 775.148C395.749 778.5 392.787 780.016 389.548 781.306C387.216 781.294 385.021 781.354 382.842 780.385C379.754 779.011 377.692 776.958 376.525 773.759C375.426 770.746 376.316 767.683 376.982 764.663C379.578 752.889 383.172 741.148 386.294 729.496L404.344 662.156L413.299 628.726C414.646 623.713 415.684 617.217 418.048 612.649C419.712 609.432 422.959 607.989 426.19 606.869Z"/></svg>